<svg xmlns="http://www.w3.org/2000/svg" xmlns:xlink="http://www.w3.org/1999/xlink" width="2000" zoomAndPan="magnify" viewBox="0 0 1500 1499.999933" height="2000" preserveAspectRatio="xMidYMid meet" version="1.0"><defs><clipPath id="c8ac468c20"><path d="M 18.6875 14.980469 L 714.207031 14.980469 L 714.207031 648.617188 L 18.6875 648.617188 Z M 18.6875 14.980469 " clip-rule="nonzero"/></clipPath><clipPath id="a973a50db4"><path d="M 33.6875 14.980469 L 699.085938 14.980469 C 703.0625 14.980469 706.878906 16.558594 709.691406 19.375 C 712.503906 22.1875 714.085938 26 714.085938 29.980469 L 714.085938 633.617188 C 714.085938 637.597656 712.503906 641.410156 709.691406 644.226562 C 706.878906 647.039062 703.0625 648.617188 699.085938 648.617188 L 33.6875 648.617188 C 29.710938 648.617188 25.894531 647.039062 23.082031 644.226562 C 20.269531 641.410156 18.6875 637.597656 18.6875 633.617188 L 18.6875 29.980469 C 18.6875 26 20.269531 22.1875 23.082031 19.375 C 25.894531 16.558594 29.710938 14.980469 33.6875 14.980469 Z M 33.6875 14.980469 " clip-rule="nonzero"/></clipPath><clipPath id="f2b4e0167b"><path d="M 0.6875 0.980469 L 696.207031 0.980469 L 696.207031 634.617188 L 0.6875 634.617188 Z M 0.6875 0.980469 " clip-rule="nonzero"/></clipPath><clipPath id="ab06dac69f"><path d="M 15.6875 0.980469 L 681.085938 0.980469 C 685.0625 0.980469 688.878906 2.558594 691.691406 5.375 C 694.503906 8.1875 696.085938 12 696.085938 15.980469 L 696.085938 619.617188 C 696.085938 623.597656 694.503906 627.410156 691.691406 630.226562 C 688.878906 633.039062 685.0625 634.617188 681.085938 634.617188 L 15.6875 634.617188 C 11.710938 634.617188 7.894531 633.039062 5.082031 630.226562 C 2.269531 627.410156 0.6875 623.597656 0.6875 619.617188 L 0.6875 15.980469 C 0.6875 12 2.269531 8.1875 5.082031 5.375 C 7.894531 2.558594 11.710938 0.980469 15.6875 0.980469 Z M 15.6875 0.980469 " clip-rule="nonzero"/></clipPath><clipPath id="43acd43d9c"><rect x="0" width="697" y="0" height="635"/></clipPath><clipPath id="1a0c43a610"><path d="M 18.6875 747.984375 L 714.207031 747.984375 L 714.207031 1381.621094 L 18.6875 1381.621094 Z M 18.6875 747.984375 " clip-rule="nonzero"/></clipPath><clipPath id="bcfb5ae23d"><path d="M 33.6875 747.984375 L 699.085938 747.984375 C 703.0625 747.984375 706.878906 749.5625 709.691406 752.375 C 712.503906 755.1875 714.085938 759.003906 714.085938 762.984375 L 714.085938 1366.621094 C 714.085938 1370.597656 712.503906 1374.414062 709.691406 1377.226562 C 706.878906 1380.039062 703.0625 1381.621094 699.085938 1381.621094 L 33.6875 1381.621094 C 29.710938 1381.621094 25.894531 1380.039062 23.082031 1377.226562 C 20.269531 1374.414062 18.6875 1370.597656 18.6875 1366.621094 L 18.6875 762.984375 C 18.6875 759.003906 20.269531 755.1875 23.082031 752.375 C 25.894531 749.5625 29.710938 747.984375 33.6875 747.984375 Z M 33.6875 747.984375 " clip-rule="nonzero"/></clipPath><clipPath id="ad2e62a52f"><path d="M 0.6875 0.984375 L 696.207031 0.984375 L 696.207031 634.621094 L 0.6875 634.621094 Z M 0.6875 0.984375 " clip-rule="nonzero"/></clipPath><clipPath id="36791c6d86"><path d="M 15.6875 0.984375 L 681.085938 0.984375 C 685.0625 0.984375 688.878906 2.5625 691.691406 5.375 C 694.503906 8.1875 696.085938 12.003906 696.085938 15.984375 L 696.085938 619.621094 C 696.085938 623.597656 694.503906 627.414062 691.691406 630.226562 C 688.878906 633.039062 685.0625 634.621094 681.085938 634.621094 L 15.6875 634.621094 C 11.710938 634.621094 7.894531 633.039062 5.082031 630.226562 C 2.269531 627.414062 0.6875 623.597656 0.6875 619.621094 L 0.6875 15.984375 C 0.6875 12.003906 2.269531 8.1875 5.082031 5.375 C 7.894531 2.5625 11.710938 0.984375 15.6875 0.984375 Z M 15.6875 0.984375 " clip-rule="nonzero"/></clipPath><clipPath id="e75c72ff17"><rect x="0" width="697" y="0" height="635"/></clipPath><clipPath id="c6915abd0f"><path d="M 794.101562 747.984375 L 1489.621094 747.984375 L 1489.621094 1381.621094 L 794.101562 1381.621094 Z M 794.101562 747.984375 " clip-rule="nonzero"/></clipPath><clipPath id="eb0deeea6c"><path d="M 809.101562 747.984375 L 1474.5 747.984375 C 1478.476562 747.984375 1482.292969 749.5625 1485.105469 752.375 C 1487.917969 755.1875 1489.5 759.003906 1489.5 762.984375 L 1489.5 1366.621094 C 1489.5 1370.597656 1487.917969 1374.414062 1485.105469 1377.226562 C 1482.292969 1380.039062 1478.476562 1381.621094 1474.5 1381.621094 L 809.101562 1381.621094 C 805.125 1381.621094 801.308594 1380.039062 798.496094 1377.226562 C 795.683594 1374.414062 794.101562 1370.597656 794.101562 1366.621094 L 794.101562 762.984375 C 794.101562 759.003906 795.683594 755.1875 798.496094 752.375 C 801.308594 749.5625 805.125 747.984375 809.101562 747.984375 Z M 809.101562 747.984375 " clip-rule="nonzero"/></clipPath><clipPath id="b13b8adffa"><path d="M 0.101562 0.984375 L 695.621094 0.984375 L 695.621094 634.621094 L 0.101562 634.621094 Z M 0.101562 0.984375 " clip-rule="nonzero"/></clipPath><clipPath id="f6c75d97c4"><path d="M 15.101562 0.984375 L 680.5 0.984375 C 684.476562 0.984375 688.292969 2.5625 691.105469 5.375 C 693.917969 8.1875 695.5 12.003906 695.5 15.984375 L 695.5 619.621094 C 695.5 623.597656 693.917969 627.414062 691.105469 630.226562 C 688.292969 633.039062 684.476562 634.621094 680.5 634.621094 L 15.101562 634.621094 C 11.125 634.621094 7.308594 633.039062 4.496094 630.226562 C 1.683594 627.414062 0.101562 623.597656 0.101562 619.621094 L 0.101562 15.984375 C 0.101562 12.003906 1.683594 8.1875 4.496094 5.375 C 7.308594 2.5625 11.125 0.984375 15.101562 0.984375 Z M 15.101562 0.984375 " clip-rule="nonzero"/></clipPath><clipPath id="646e9443da"><rect x="0" width="696" y="0" height="635"/></clipPath><clipPath id="277caaf86c"><path d="M 827.789062 14.980469 L 1086.277344 14.980469 L 1086.277344 284.574219 L 827.789062 284.574219 Z M 827.789062 14.980469 " clip-rule="nonzero"/></clipPath><clipPath id="448656c6a0"><path d="M 842.789062 14.980469 L 1071.277344 14.980469 C 1075.257812 14.980469 1079.070312 16.558594 1081.886719 19.375 C 1084.699219 22.1875 1086.277344 26 1086.277344 29.980469 L 1086.277344 269.070312 C 1086.277344 273.046875 1084.699219 276.863281 1081.886719 279.675781 C 1079.070312 282.488281 1075.257812 284.070312 1071.277344 284.070312 L 842.789062 284.070312 C 838.8125 284.070312 834.996094 282.488281 832.183594 279.675781 C 829.371094 276.863281 827.789062 273.046875 827.789062 269.070312 L 827.789062 29.980469 C 827.789062 26 829.371094 22.1875 832.183594 19.375 C 834.996094 16.558594 838.8125 14.980469 842.789062 14.980469 Z M 842.789062 14.980469 " clip-rule="nonzero"/></clipPath><clipPath id="4cfbffdde7"><path d="M 0.789062 0.980469 L 259.277344 0.980469 L 259.277344 270 L 0.789062 270 Z M 0.789062 0.980469 " clip-rule="nonzero"/></clipPath><clipPath id="d255d848e7"><path d="M 15.789062 0.980469 L 244.277344 0.980469 C 248.257812 0.980469 252.070312 2.558594 254.886719 5.375 C 257.699219 8.1875 259.277344 12 259.277344 15.980469 L 259.277344 255.070312 C 259.277344 259.046875 257.699219 262.863281 254.886719 265.675781 C 252.070312 268.488281 248.257812 270.070312 244.277344 270.070312 L 15.789062 270.070312 C 11.8125 270.070312 7.996094 268.488281 5.183594 265.675781 C 2.371094 262.863281 0.789062 259.046875 0.789062 255.070312 L 0.789062 15.980469 C 0.789062 12 2.371094 8.1875 5.183594 5.375 C 7.996094 2.558594 11.8125 0.980469 15.789062 0.980469 Z M 15.789062 0.980469 " clip-rule="nonzero"/></clipPath><clipPath id="6f6b8868ce"><rect x="0" width="260" y="0" height="271"/></clipPath><clipPath id="493428ff10"><path d="M 827.789062 379.527344 L 1086.277344 379.527344 L 1086.277344 649 L 827.789062 649 Z M 827.789062 379.527344 " clip-rule="nonzero"/></clipPath><clipPath id="977b025fe0"><path d="M 842.789062 379.527344 L 1071.277344 379.527344 C 1075.257812 379.527344 1079.070312 381.109375 1081.886719 383.921875 C 1084.699219 386.734375 1086.277344 390.550781 1086.277344 394.527344 L 1086.277344 633.617188 C 1086.277344 637.597656 1084.699219 641.410156 1081.886719 644.226562 C 1079.070312 647.039062 1075.257812 648.617188 1071.277344 648.617188 L 842.789062 648.617188 C 838.8125 648.617188 834.996094 647.039062 832.183594 644.226562 C 829.371094 641.410156 827.789062 637.597656 827.789062 633.617188 L 827.789062 394.527344 C 827.789062 390.550781 829.371094 386.734375 832.183594 383.921875 C 834.996094 381.109375 838.8125 379.527344 842.789062 379.527344 Z M 842.789062 379.527344 " clip-rule="nonzero"/></clipPath><clipPath id="947ebc3ab6"><path d="M 0.789062 0.527344 L 259.277344 0.527344 L 259.277344 269.71875 L 0.789062 269.71875 Z M 0.789062 0.527344 " clip-rule="nonzero"/></clipPath><clipPath id="0edb81ba21"><path d="M 15.789062 0.527344 L 244.277344 0.527344 C 248.257812 0.527344 252.070312 2.109375 254.886719 4.921875 C 257.699219 7.734375 259.277344 11.550781 259.277344 15.527344 L 259.277344 254.617188 C 259.277344 258.597656 257.699219 262.410156 254.886719 265.226562 C 252.070312 268.039062 248.257812 269.617188 244.277344 269.617188 L 15.789062 269.617188 C 11.8125 269.617188 7.996094 268.039062 5.183594 265.226562 C 2.371094 262.410156 0.789062 258.597656 0.789062 254.617188 L 0.789062 15.527344 C 0.789062 11.550781 2.371094 7.734375 5.183594 4.921875 C 7.996094 2.109375 11.8125 0.527344 15.789062 0.527344 Z M 15.789062 0.527344 " clip-rule="nonzero"/></clipPath><clipPath id="4e5ce422a3"><rect x="0" width="260" y="0" height="270"/></clipPath><clipPath id="e5bf975fcb"><path d="M 1175.390625 377.242188 L 1433.878906 377.242188 L 1433.878906 646.839844 L 1175.390625 646.839844 Z M 1175.390625 377.242188 " clip-rule="nonzero"/></clipPath><clipPath id="6f38919337"><path d="M 1190.390625 377.242188 L 1418.878906 377.242188 C 1422.855469 377.242188 1426.671875 378.824219 1429.484375 381.636719 C 1432.296875 384.449219 1433.878906 388.265625 1433.878906 392.242188 L 1433.878906 631.332031 C 1433.878906 635.3125 1432.296875 639.125 1429.484375 641.941406 C 1426.671875 644.753906 1422.855469 646.332031 1418.878906 646.332031 L 1190.390625 646.332031 C 1186.410156 646.332031 1182.597656 644.753906 1179.785156 641.941406 C 1176.96875 639.125 1175.390625 635.3125 1175.390625 631.332031 L 1175.390625 392.242188 C 1175.390625 388.265625 1176.96875 384.449219 1179.785156 381.636719 C 1182.597656 378.824219 1186.410156 377.242188 1190.390625 377.242188 Z M 1190.390625 377.242188 " clip-rule="nonzero"/></clipPath><clipPath id="9e6b67b76b"><path d="M 0.390625 0.242188 L 258.878906 0.242188 L 258.878906 269 L 0.390625 269 Z M 0.390625 0.242188 " clip-rule="nonzero"/></clipPath><clipPath id="db191b70f9"><path d="M 15.390625 0.242188 L 243.878906 0.242188 C 247.855469 0.242188 251.671875 1.824219 254.484375 4.636719 C 257.296875 7.449219 258.878906 11.265625 258.878906 15.242188 L 258.878906 254.332031 C 258.878906 258.3125 257.296875 262.125 254.484375 264.941406 C 251.671875 267.753906 247.855469 269.332031 243.878906 269.332031 L 15.390625 269.332031 C 11.410156 269.332031 7.597656 267.753906 4.785156 264.941406 C 1.96875 262.125 0.390625 258.3125 0.390625 254.332031 L 0.390625 15.242188 C 0.390625 11.265625 1.96875 7.449219 4.785156 4.636719 C 7.597656 1.824219 11.410156 0.242188 15.390625 0.242188 Z M 15.390625 0.242188 " clip-rule="nonzero"/></clipPath><clipPath id="a98c42679a"><rect x="0" width="259" y="0" height="270"/></clipPath></defs><rect x="-150" width="1800" fill="#ffffff" y="-149.999993" height="1799.99992" fill-opacity="1"/><rect x="-150" width="1800" fill="#ffffff" y="-149.999993" height="1799.99992" fill-opacity="1"/><g clip-path="url(#c8ac468c20)"><g clip-path="url(#a973a50db4)"><g transform="matrix(1, 0, 0, 1, 18, 14)"><g clip-path="url(#43acd43d9c)"><g clip-path="url(#f2b4e0167b)"><g clip-path="url(#ab06dac69f)"><path fill="#e5157a" d="M 0.6875 0.980469 L 696.207031 0.980469 L 696.207031 634.617188 L 0.6875 634.617188 Z M 0.6875 0.980469 " fill-opacity="1" fill-rule="nonzero"/></g></g></g></g></g></g><g clip-path="url(#1a0c43a610)"><g clip-path="url(#bcfb5ae23d)"><g transform="matrix(1, 0, 0, 1, 18, 747)"><g clip-path="url(#e75c72ff17)"><g clip-path="url(#ad2e62a52f)"><g clip-path="url(#36791c6d86)"><path fill="#25aae1" d="M 0.6875 0.984375 L 696.207031 0.984375 L 696.207031 634.621094 L 0.6875 634.621094 Z M 0.6875 0.984375 " fill-opacity="1" fill-rule="nonzero"/></g></g></g></g></g></g><g clip-path="url(#c6915abd0f)"><g clip-path="url(#eb0deeea6c)"><g transform="matrix(1, 0, 0, 1, 794, 747)"><g clip-path="url(#646e9443da)"><g clip-path="url(#b13b8adffa)"><g clip-path="url(#f6c75d97c4)"><path fill="#f7ed1f" d="M 0.101562 0.984375 L 695.621094 0.984375 L 695.621094 634.621094 L 0.101562 634.621094 Z M 0.101562 0.984375 " fill-opacity="1" fill-rule="nonzero"/></g></g></g></g></g></g><g clip-path="url(#277caaf86c)"><g clip-path="url(#448656c6a0)"><g transform="matrix(1, 0, 0, 1, 827, 14)"><g clip-path="url(#6f6b8868ce)"><g clip-path="url(#4cfbffdde7)"><g clip-path="url(#d255d848e7)"><path fill="#f7ed1f" d="M 0.789062 0.980469 L 259.277344 0.980469 L 259.277344 269.566406 L 0.789062 269.566406 Z M 0.789062 0.980469 " fill-opacity="1" fill-rule="nonzero"/></g></g></g></g></g></g><g clip-path="url(#493428ff10)"><g clip-path="url(#977b025fe0)"><g transform="matrix(1, 0, 0, 1, 827, 379)"><g clip-path="url(#4e5ce422a3)"><g clip-path="url(#947ebc3ab6)"><g clip-path="url(#0edb81ba21)"><path fill="#25aae1" d="M 0.789062 0.527344 L 259.277344 0.527344 L 259.277344 269.113281 L 0.789062 269.113281 Z M 0.789062 0.527344 " fill-opacity="1" fill-rule="nonzero"/></g></g></g></g></g></g><g clip-path="url(#e5bf975fcb)"><g clip-path="url(#6f38919337)"><g transform="matrix(1, 0, 0, 1, 1175, 377)"><g clip-path="url(#a98c42679a)"><g clip-path="url(#9e6b67b76b)"><g clip-path="url(#db191b70f9)"><path fill="#e5157a" d="M 0.390625 0.242188 L 258.878906 0.242188 L 258.878906 268.828125 L 0.390625 268.828125 Z M 0.390625 0.242188 " fill-opacity="1" fill-rule="nonzero"/></g></g></g></g></g></g></svg>